<svg width="1000" height="1000" viewBox="0 0 1000 1000" fill="none" xmlns="http://www.w3.org/2000/svg">
<circle cx="500" cy="500" r="500" fill="white"/>
<path d="M425 206C425 172.863 451.863 146 485 146H515C548.137 146 575 172.863 575 206V236C575 269.137 548.137 296 515 296H485C451.863 296 425 269.137 425 236V206Z" fill="#004E48"/>
<path d="M595 376C595 342.863 621.863 316 655 316H685C718.137 316 745 342.863 745 376V406C745 439.137 718.137 466 685 466H655C621.863 466 595 439.137 595 406V376Z" fill="#004E48"/>
<path d="M425 776C425 742.863 451.863 716 485 716H515C548.137 716 575 742.863 575 776V806C575 839.137 548.137 866 515 866H485C451.863 866 425 839.137 425 806V776Z" fill="#004E48"/>
<path d="M425 376C425 342.863 451.863 316 485 316H515C548.137 316 575 342.863 575 376V636C575 669.137 548.137 696 515 696H485C451.863 696 425 669.137 425 636V376Z" fill="#004E48"/>
<path d="M255 376C255 342.863 281.863 316 315 316H515C548.137 316 575 342.863 575 376V406C575 439.137 548.137 466 515 466H315C281.863 466 255 439.137 255 406V376Z" fill="#004E48"/>
</svg>
